<?xml version="1.0" encoding="UTF-8"?>
<svg id="Capa_2" data-name="Capa 2" xmlns="http://www.w3.org/2000/svg" xmlns:xlink="http://www.w3.org/1999/xlink" viewBox="0 0 464 464">
  <defs>
    <style>
      .cls-1 {
        fill: #961217;
      }

      .cls-2 {
        fill: #7d0f13;
      }

      .cls-3 {
        fill: #fefefe;
      }

      .cls-4 {
        fill: url(#Degradado_sin_nombre_19);
      }
    </style>
    <linearGradient id="Degradado_sin_nombre_19" data-name="Degradado sin nombre 19" x1="32.8" y1="32.8" x2="431.2" y2="431.2" gradientUnits="userSpaceOnUse">
      <stop offset="0" stop-color="#fff"/>
      <stop offset="0" stop-color="#f5f5f5"/>
      <stop offset=".01" stop-color="#c7c7c7"/>
      <stop offset=".03" stop-color="#9c9c9c"/>
      <stop offset=".04" stop-color="#777"/>
      <stop offset=".06" stop-color="#565656"/>
      <stop offset=".07" stop-color="#3b3b3b"/>
      <stop offset=".09" stop-color="#252525"/>
      <stop offset=".12" stop-color="#141414"/>
      <stop offset=".14" stop-color="#080808"/>
      <stop offset=".18" stop-color="#010101"/>
      <stop offset=".29" stop-color="#000"/>
    </linearGradient>
  </defs>
  <g id="Capa_1-2" data-name="Capa 1">
    <rect class="cls-4" width="464" height="464" rx="112" ry="112"/>
    <g>
      <path class="cls-1" d="M195.16,302.27c2.08,6.42,2.54,13.2,2.47,19.83-.03,2.95-2.11,5.26-5.05,5.52-7.62.67-15.12.15-22.8-.92-20.7-2.89-40.01-12.56-46.11-33.41-2.32-7.91-2.9-15.99-1.47-23.86l1.09,9.78c5.08,25.56,42.93,22.5,64.99,18.69,3.17-.55,5.75.88,6.89,4.38Z"/>
      <path class="cls-1" d="M336.07,200.31c-.45-1.29-.14-1.46.87-.51,16.36,35.86-5,65.36-36.81,82.52-1.66.9-4.23,1.23-5.68.28-1.76-1.15-2.4-3.52-2.59-5.53l-1.6-16.78c-.28-2.93.8-5.69,3.33-7.01l7.97-4.14c9.02-4.68,17.79-9.37,25.58-15.85,9.98-8.31,12.79-20.95,8.92-32.99Z"/>
      <path class="cls-2" d="M336.95,199.81l-.87.51c-.24-.75-.86-1.58-.69-2.64,1.26.55,1.22,1.39,1.56,2.14Z"/>
      <g>
        <path class="cls-3" d="M225.12,232.49l-4.49,31.38c-.56,3.9-8.11,3.77-12.99,1.86-2.48-.97-3.18-2.89-2.85-5.5l4.84-38.01c.15-1.16-.31-2.48-.84-3.02-.92-.93-2.14-.43-3.35.02-7.1,2.59-13.85,5.52-19.75,10.14-1.76,1.38-2.27,2.45-1.67,4.62,4.6,16.63,8.01,33.32,10.81,50.37.93,5.67-10.08,8.16-16.72,6.42l-1.13-11.59-3.56-24.13c-.12-.8-.6-1.05-.97-1.14-.34-.09-1.3.19-1.32.87l-.97,30.55c-4.23,3.09-9.52,3.9-14.5,3.01-1.35-.24-1.9-1.96-1.86-3.22.33-12.29,1.4-24.19,3.3-36.27.09-.57-.24-.93-.4-1.11-1.47-1.7-7.69,5.1-10.96,9.24-6.43,8.14-11.49,16.83-16.66,26.17-7.88-16.63,1.38-34.66,12.83-47.42,8.37-9.33,18.23-16.5,29.21-22.72,24.05-13.63,49.4-24.01,76.19-30.92,20.44-5.27,47.26-8.98,66.51-.92,9.27,4.08,16.64,11.33,19.08,21.86-8.09-7.79-18.47-10.94-29.42-9.14-.98.16-1.88.23-2.34.85s-.67,1.58-.59,2.6l1.71,23.09c.37,4.98.86,9.65.27,14.68-4.45,3.28-10.2,4.67-15.59,3.9-1.2-1.86-1.39-3.76-1.44-5.79l-.53-19.12c-.03-1.19.08-2.58-1.37-3.32-1.17,5.26-1.27,10.18-1.48,15.49l-1.37,34.5c-.17,4.23-7.58,4.59-13.19,2.69-1.56-.53-2.42-1.65-2.44-3.43-.24-19.08-.16-37.9.73-56.98.04-.75.16-1.25-.1-1.67-1.66-2.71-16.98,2.1-23.56,4.89-1.86.79-2.25,2.29-1.91,4.21,3.73,20.89,7.4,41.47,10.05,62.54.26,2.06-.16,3.81-2.06,4.82-4.16,2.2-9.72,2.36-13.73-.27l-6.46-44.94c-.12-.83-.45-1.45-1.01-1.61-.51-.14-1.75.3-1.92,1.49Z"/>
        <path class="cls-3" d="M234.83,172.79c-4.93,7.21-14.91,9.49-22.19,5.35-5.6-3.19-7-9.66-6.14-15.57,1.18-8.09,6.47-14.03,14.55-15.58,5.89-1.13,11.77,1.22,14.73,6.8,3.04,5.75,3.02,13.19-.95,19.01Z"/>
        <path class="cls-3" d="M276.78,166.54c-4.92-.99-9.04-3.69-9.89-8.74-1.63-9.67,3.14-19.96,13.61-21.55,4.65-.71,8.84.86,11.86,3.81,3.47,3.39,4.1,7.95,3.53,12.73-1.15,9.65-9.27,15.73-19.11,13.75Z"/>
        <path class="cls-3" d="M159.34,202.67c-5.65-1.01-9.28-6.84-9.26-12.18.02-4.49.94-8.39,3.13-12.13,3.06-5.23,9.37-8.68,15.39-6.98,8.6,2.44,12.04,11.84,9.02,19.86-2.84,7.52-9.66,12.97-18.29,11.43Z"/>
      </g>
    </g>
  </g>
</svg>