<?xml version="1.0" encoding="UTF-8"?>
<svg id="Capa_1" xmlns="http://www.w3.org/2000/svg" xmlns:xlink="http://www.w3.org/1999/xlink" version="1.1" viewBox="0 0 512 512">
  <!-- Generator: Adobe Illustrator 30.3.0, SVG Export Plug-In . SVG Version: 2.1.3 Build 182)  -->
  <defs>
    <style>
      .st0 {
        fill: #fff;
      }

      .st1 {
        fill: url(#Degradado_sin_nombre);
      }
    </style>
    <linearGradient id="Degradado_sin_nombre" data-name="Degradado sin nombre" x1="64" y1="614" x2="448" y2="1030" gradientTransform="translate(0 -566)" gradientUnits="userSpaceOnUse">
      <stop offset="0" stop-color="#84a7c4"/>
      <stop offset="0" stop-color="#779cba"/>
      <stop offset="0" stop-color="#5783a5"/>
      <stop offset="0" stop-color="#3c6d92"/>
      <stop offset=".2" stop-color="#265b82"/>
      <stop offset=".3" stop-color="#154e77"/>
      <stop offset=".4" stop-color="#09446f"/>
      <stop offset=".6" stop-color="#023f6a"/>
      <stop offset="1" stop-color="#013e69"/>
    </linearGradient>
  </defs>
  <rect class="st1" x="24" y="24" width="464" height="464" rx="112" ry="112"/>
  <path class="st0" d="M365.6,257.3c0,61-49.5,110.5-110.5,110.5s-110.5-49.5-110.5-110.5,49.5-110.5,110.5-110.5,110.5,49.5,110.5,110.5ZM358.8,257.3c0-57.3-46.4-103.7-103.7-103.7s-103.7,46.4-103.7,103.7,46.4,103.7,103.7,103.7,103.7-46.4,103.7-103.7Z"/>
  <path class="st0" d="M267.2,312.7c-7.9-2.5-16-2.5-23.8-.2l-8.1,2.3c-3.6,1-7.1,1.5-11,1.4l2.9-19.3,9.4-63.3c12.1-1.1,24.3-1.1,36.8.2l3,22.3,8.9,60.8c-3.3-.1-6.5-.7-9.7-1.6l-8.4-2.6h0Z"/>
  <path class="st0" d="M278.9,228.7c-16.2-2-31.6-1.8-47.8-.1l-.2-7c0-.7.8-1.9,1.4-2l4.9-.8v-19.6c-1.1-.4-2-.8-2.8-1.4s-.8-2.2,0-2.9l18.7-16c1.2-1,2.9-.7,4,.2l17.4,14.9c.9.7,1.9,1.6,1.5,2.9s-1.8,1.8-3.4,2v19.9l4.8.9c.6.1,1.6,1.2,1.6,1.8l-.2,7.2h.1ZM268.4,198.3h-26.6v20.5h26.6v-20.5Z"/>
  <path class="st0" d="M330.4,322.1c-13.1-4.1-20.5-2.6-32.3,2.8-8.5,3.8-17.6,4.3-26.5,1.2s-17.2-5.5-28.7-1.6-15.6,3.2-23.5,1c-3.8-1.1-7.2-2.6-10.7-4.2-10.2-4.5-18.9-3.3-29.4-.2l-3.7-3.9c11.2-3.6,21.1-6.1,32.4-1.6l10.7,4.3c7,2.8,14.5,2.2,21.6,0,11.4-3.7,18.7-3.7,30.1.4,8.8,3.2,15.4,4,24.2.5l9.9-4c6.2-2.5,12.8-2.6,19.4-1.4l10.3,2.8-3.9,3.9h0Z"/>
  <path class="st0" d="M325.2,221l-48.1-10.5-.2-5.1,47.8-9.2c.4,0,.9-.1,1.1,0s.5.6.6.9v23.1c.1.2-.7.9-1.2.8h0Z"/>
  <path class="st0" d="M315.7,336.1c-3,.1-5.9.2-8.6,1.2l-9.8,3.8c-8.7,3.9-18.1,4-27,.6l-9.1-3.1c-4.8-1.6-9.9-1.5-14.7,0l-7.5,2.5c-8.5,2.8-17.4,2.7-25.4-1.1l-7.1-3.3c-4.4-2-8.8-2.9-13.7-2.1l-4.1-4.1c6.5-2.2,13.2-1.5,19.3,1.3l10.3,4.6c5.4,2.4,11.4,2.5,16.9.6l8.6-2.8c6.7-2.2,13.7-2.6,20.3-.2l9.2,3.3c15.9,5.6,23-3.2,35.3-5.5s7.4-.9,11.3,0l-4.3,4.3h.1Z"/>
  <path class="st0" d="M321.3,256.2l-10-6.9c-3.6-2.5-8.1-4-12.6-4s-6.1,1-9,1.7l-8.4,2.1c-.6-.7-1-1.6-1.1-2.4l6.6-2.9c10.2-4.5,19.8-2.7,28.8,3.6l13.4,9.5c7.7,5.5,16,9.4,25.1,12.4.1,1.2-.4,2.5-1.3,3.3-12.6-2.9-21.2-9.4-31.6-16.5h.1Z"/>
  <path class="st0" d="M192.5,260.8l-12.8,7.8c-7,4.3-14.6,7-22.7,8.2-.7-1.2-.8-2.5-.5-3.7,8.2-1.7,15.7-4.5,22.7-8.9l11.8-7.3c9.7-6,19.5-7.2,29.7-2.1l5.9,2.9c.5.3,1.2.9,1.3,1.3s-.2,1.6-.7,2.2l-11.9-4.5c-2.1-.8-4.1-1.4-6.3-1.4-5.9,0-11.2,2.2-16.4,5.3v.2Z"/>
  <path class="st0" d="M342.5,305.1c-4.8,1.6-9.9,2.3-15,1.9-10.4-.7-19.3-5.8-29.3-4.3l-9.2,1.3-.8-4.4,7.8-1.2c4.9-.8,9.8-.5,14.6.6l11.5,2.7c5.8,1.4,11.5,1.4,17.2-.3s3.3-.6,4.9,0l-1.7,3.6h0Z"/>
  <path class="st0" d="M210.9,303c-7.4-1.6-14.6-1.5-21.9.3s-14.6,2.3-22,1.1l-1.7-4.2c7.9,1,15.5.3,23.3-1.5s14.7-1.9,22.1-.2l10.3,2.4-.7,4.1-9.4-2h0Z"/>
  <path class="st0" d="M318.1,289.2c-1.1,1.6-7.7,2.1-8.1-1.4s-.2-3.4,0-5,1.7-2,3-2.2v-3.9c-4.6-.3-8.8.6-13.3,1.8s-1.9.3-2.8-.1c4.3-1.6,8.3-3.5,12.8-4.2,6.6-1,13.3.3,19.6,3.3-1.7.4-3.4,0-5.1-.2-3.1-.5-5.9-.7-9.1-.6v3.9c2.5.4,3.7,2.1,3.6,4.5s0,3-.6,4h0ZM316,287.3l-.2-3.5h-3.3v3.6h3.5Z"/>
  <path class="st0" d="M260,214.7h-10.3l-1.4-.8,5.5-9.8c.3-.5,1.6-.7,1.8-.2l5.7,10.1-1.4.7h0Z"/>
</svg>