<svg xmlns="http://www.w3.org/2000/svg" viewBox="0 0 24 24" fill="none">
  <path fill="#fff" d="M12 2C6.48 2 2 6.59 2 12.25c0 4.53 2.87 8.37 6.84 9.72.5.1.68-.22.68-.49 0-.24-.01-.89-.01-1.75-2.78.62-3.37-1.37-3.37-1.37-.46-1.18-1.11-1.5-1.11-1.5-.91-.63.07-.62.07-.62 1 .07 1.53 1.06 1.53 1.06.89 1.56 2.34 1.11 2.91.85.09-.67.35-1.11.64-1.37-2.22-.26-4.56-1.14-4.56-5.06 0-1.12.39-2.03 1.03-2.75-.1-.26-.45-1.31.1-2.72 0 0 .84-.28 2.75 1.05A9.32 9.32 0 0 1 12 7.17c.85 0 1.71.12 2.5.34 1.91-1.33 2.75-1.05 2.75-1.05.54 1.41.2 2.46.1 2.72.64.72 1.03 1.63 1.03 2.75 0 3.93-2.34 4.8-4.57 5.05.36.32.68.95.68 1.91 0 1.37-.01 2.49-.01 2.83 0 .27.18.59.69.49C19.14 20.62 22 16.78 22 12.25 22 6.59 17.52 2 12 2Z"/>
</svg>
